STARTFONT 2.1
FONT -Misc-Fixed-Medium-R-Normal--10-100-75-75-C-60-ISO10646-1
SIZE 10 75 75
FONTBOUNDINGBOX 7 10 0 -2
COMMENT "Generated by fontforge, http://fontforge.sourceforge.net"
STARTPROPERTIES 24
FONTNAME_REGISTRY ""
FOUNDRY "Misc"
FAMILY_NAME "Fixed"
WEIGHT_NAME "Medium"
SLANT "R"
SETWIDTH_NAME "Normal"
ADD_STYLE_NAME ""
PIXEL_SIZE 10
POINT_SIZE 100
RESOLUTION_X 75
RESOLUTION_Y 75
SPACING "C"
AVERAGE_WIDTH 60
CHARSET_REGISTRY "ISO10646"
CHARSET_ENCODING "1"
COPYRIGHT "Public domain terminal emulator font.  Share and enjoy."
_XMBDFED_INFO "Edited with xmbdfed 4.5."
CAP_HEIGHT 7
X_HEIGHT 5
WEIGHT 10
QUAD_WIDTH 6
DEFAULT_CHAR 0
FONT_DESCENT 2
FONT_ASCENT 8
ENDPROPERTIES
CHARS 204
STARTCHAR char0
ENCODING 0
SWIDTH 576 0
DWIDTH 6 0
BBX 5 7 0 0
BITMAP
A8
00
88
00
88
00
A8
ENDCHAR
STARTCHAR uni21B2
ENCODING 1
SWIDTH 480 0
DWIDTH 6 0
BBX 6 12 0 -2
BITMAP
00
00
08
08
08
28
48
F8
40
20
00
00
ENDCHAR

STARTCHAR degree
ENCODING 2
SWIDTH 576 0
DWIDTH 6 0
BBX 6 10 0 -2
BITMAP
00
20
50
20
00
00
00
00
00
00
ENDCHAR

STARTCHAR C112
ENCODING 3
SWIDTH 1200 0
DWIDTH 6 0
BBX 5 5 0 0
BITMAP
F8
F8
F8
F8
F8
ENDCHAR
STARTCHAR C110
ENCODING 4
SWIDTH 1200 0
DWIDTH 6 0
BBX 5 5 0 0
BITMAP
F8
88
88
88
F8
ENDCHAR
STARTCHAR therm
ENCODING 5
SWIDTH 576 0
DWIDTH 6 0
BBX 5 8 0 0
BITMAP
20
50
50
50
70
F8
F8
70
ENDCHAR
STARTCHAR C101
ENCODING 6
SWIDTH 1800 0
DWIDTH 9 0
BBX 7 5 0 0
BITMAP
1C
FE
82
82
FE
ENDCHAR
STARTCHAR ready
ENCODING 7
SWIDTH 576 0
DWIDTH 6 0
BBX 5 8 0 0
BITMAP
88
50
20
88
20
50
88
88
ENDCHAR
STARTCHAR exton
ENCODING 8
SWIDTH 576 0
DWIDTH 6 0
BBX 6 8 0 0
BITMAP
48
90
48
FC
FC
78
30
30
ENDCHAR
STARTCHAR exton2
ENCODING 9
SWIDTH 576 0
DWIDTH 6 0
BBX 6 8 0 0
BITMAP
24
48
24
FC
FC
78
30
30
ENDCHAR
STARTCHAR extoff
ENCODING 10
SWIDTH 576 0
DWIDTH 6 0
BBX 6 5 0 0
BITMAP
FC
FC
78
30
30
ENDCHAR
STARTCHAR heatbedoff
ENCODING 11
SWIDTH 576 0
DWIDTH 6 0
BBX 6 2 0 0
BITMAP
FC
FC
ENDCHAR
STARTCHAR headbedon
ENCODING 12
SWIDTH 576 0
DWIDTH 6 0
BBX 6 6 0 0
BITMAP
48
90
48
90
FC
FC
ENDCHAR
STARTCHAR heatbedon1
ENCODING 13
SWIDTH 576 0
DWIDTH 6 0
BBX 6 6 0 0
BITMAP
24
48
24
48
FC
FC
ENDCHAR
STARTCHAR extoff
ENCODING 14
SWIDTH 700 0
DWIDTH 7 0
BBX 7 7 0 0
BITMAP
82
44
38
28
38
44
82
ENDCHAR
STARTCHAR uni000F
ENCODING 15
SWIDTH 700 0
DWIDTH 7 0
BBX 7 7 0 0
BITMAP
10
10
38
EE
38
10
10
ENDCHAR
STARTCHAR space
ENCODING 32
SWIDTH 576 0
DWIDTH 6 0
BBX 1 1 5 -2
BITMAP
00
ENDCHAR
STARTCHAR exclam
ENCODING 33
SWIDTH 576 0
DWIDTH 6 0
BBX 1 7 2 0
BITMAP
80
80
80
80
80
00
80
ENDCHAR
STARTCHAR quotedbl
ENCODING 34
SWIDTH 576 0
DWIDTH 6 0
BBX 3 3 1 4
BITMAP
A0
A0
A0
ENDCHAR
STARTCHAR numbersign
ENCODING 35
SWIDTH 576 0
DWIDTH 6 0
BBX 5 7 0 0
BITMAP
50
50
F8
50
F8
50
50
ENDCHAR
STARTCHAR dollar
ENCODING 36
SWIDTH 576 0
DWIDTH 6 0
BBX 5 7 0 0
BITMAP
20
70
A0
70
28
70
20
ENDCHAR
STARTCHAR percent
ENCODING 37
SWIDTH 576 0
DWIDTH 6 0
BBX 6 8 0 0
BITMAP
44
A4
48
10
20
48
94
88
ENDCHAR
STARTCHAR ampersand
ENCODING 38
SWIDTH 576 0
DWIDTH 6 0
BBX 5 7 0 0
BITMAP
40
A0
A0
40
A8
90
68
ENDCHAR
STARTCHAR quotesingle
ENCODING 39
SWIDTH 576 0
DWIDTH 6 0
BBX 1 3 2 4
BITMAP
80
80
80
ENDCHAR
STARTCHAR parenleft
ENCODING 40
SWIDTH 576 0
DWIDTH 6 0
BBX 3 7 1 0
BITMAP
20
40
80
80
80
40
20
ENDCHAR
STARTCHAR parenright
ENCODING 41
SWIDTH 576 0
DWIDTH 6 0
BBX 3 7 1 0
BITMAP
80
40
20
20
20
40
80
ENDCHAR
STARTCHAR asterisk
ENCODING 42
SWIDTH 576 0
DWIDTH 6 0
BBX 5 5 0 1
BITMAP
88
50
F8
50
88
ENDCHAR
STARTCHAR plus
ENCODING 43
SWIDTH 576 0
DWIDTH 6 0
BBX 5 5 0 1
BITMAP
20
20
F8
20
20
ENDCHAR
STARTCHAR comma
ENCODING 44
SWIDTH 576 0
DWIDTH 6 0
BBX 3 3 1 -1
BITMAP
60
40
80
ENDCHAR
STARTCHAR hyphen
ENCODING 45
SWIDTH 576 0
DWIDTH 6 0
BBX 4 1 1 3
BITMAP
F0
ENDCHAR
STARTCHAR period
ENCODING 46
SWIDTH 576 0
DWIDTH 6 0
BBX 2 2 1 -1
BITMAP
C0
C0
ENDCHAR
STARTCHAR slash
ENCODING 47
SWIDTH 576 0
DWIDTH 6 0
BBX 5 7 0 0
BITMAP
08
08
10
20
40
80
80
ENDCHAR
STARTCHAR zero
ENCODING 48
SWIDTH 576 0
DWIDTH 6 0
BBX 5 7 0 0
BITMAP
20
50
88
88
88
50
20
ENDCHAR
STARTCHAR one
ENCODING 49
SWIDTH 576 0
DWIDTH 6 0
BBX 5 7 0 0
BITMAP
20
60
A0
20
20
20
F8
ENDCHAR
STARTCHAR two
ENCODING 50
SWIDTH 576 0
DWIDTH 6 0
BBX 5 7 0 0
BITMAP
70
88
08
30
40
80
F8
ENDCHAR
STARTCHAR three
ENCODING 51
SWIDTH 576 0
DWIDTH 6 0
BBX 5 7 0 0
BITMAP
F8
08
10
30
08
88
70
ENDCHAR
STARTCHAR four
ENCODING 52
SWIDTH 576 0
DWIDTH 6 0
BBX 5 7 0 0
BITMAP
10
30
50
90
F8
10
10
ENDCHAR
STARTCHAR five
ENCODING 53
SWIDTH 576 0
DWIDTH 6 0
BBX 5 7 0 0
BITMAP
F8
80
B0
C8
08
88
70
ENDCHAR
STARTCHAR six
ENCODING 54
SWIDTH 576 0
DWIDTH 6 0
BBX 5 7 0 0
BITMAP
30
40
80
B0
C8
88
70
ENDCHAR
STARTCHAR seven
ENCODING 55
SWIDTH 576 0
DWIDTH 6 0
BBX 5 7 0 0
BITMAP
F8
08
10
10
20
40
40
ENDCHAR
STARTCHAR eight
ENCODING 56
SWIDTH 576 0
DWIDTH 6 0
BBX 5 7 0 0
BITMAP
70
88
88
70
88
88
70
ENDCHAR
STARTCHAR nine
ENCODING 57
SWIDTH 576 0
DWIDTH 6 0
BBX 5 7 0 0
BITMAP
70
88
98
68
08
10
60
ENDCHAR
STARTCHAR colon
ENCODING 58
SWIDTH 576 0
DWIDTH 6 0
BBX 2 5 2 1
BITMAP
C0
C0
00
C0
C0
ENDCHAR
STARTCHAR semicolon
ENCODING 59
SWIDTH 576 0
DWIDTH 6 0
BBX 3 7 1 -1
BITMAP
40
E0
40
00
60
40
80
ENDCHAR
STARTCHAR less
ENCODING 60
SWIDTH 576 0
DWIDTH 6 0
BBX 4 7 1 0
BITMAP
10
20
40
80
40
20
10
ENDCHAR
STARTCHAR equal
ENCODING 61
SWIDTH 576 0
DWIDTH 6 0
BBX 5 3 0 2
BITMAP
F8
00
F8
ENDCHAR
STARTCHAR greater
ENCODING 62
SWIDTH 576 0
DWIDTH 6 0
BBX 4 7 1 0
BITMAP
80
40
20
10
20
40
80
ENDCHAR
STARTCHAR question
ENCODING 63
SWIDTH 576 0
DWIDTH 6 0
BBX 5 7 0 0
BITMAP
70
88
10
20
20
00
20
ENDCHAR
STARTCHAR at
ENCODING 64
SWIDTH 576 0
DWIDTH 6 0
BBX 5 7 0 0
BITMAP
70
88
98
A8
B0
80
70
ENDCHAR
STARTCHAR A
ENCODING 65
SWIDTH 576 0
DWIDTH 6 0
BBX 5 7 0 0
BITMAP
20
50
88
88
F8
88
88
ENDCHAR
STARTCHAR B
ENCODING 66
SWIDTH 576 0
DWIDTH 6 0
BBX 5 7 0 0
BITMAP
F0
48
48
70
48
48
F0
ENDCHAR
STARTCHAR C
ENCODING 67
SWIDTH 576 0
DWIDTH 6 0
BBX 5 7 0 0
BITMAP
70
88
80
80
80
88
70
ENDCHAR
STARTCHAR D
ENCODING 68
SWIDTH 576 0
DWIDTH 6 0
BBX 5 7 0 0
BITMAP
F0
48
48
48
48
48
F0
ENDCHAR
STARTCHAR E
ENCODING 69
SWIDTH 576 0
DWIDTH 6 0
BBX 5 7 0 0
BITMAP
F8
80
80
F0
80
80
F8
ENDCHAR
STARTCHAR F
ENCODING 70
SWIDTH 576 0
DWIDTH 6 0
BBX 5 7 0 0
BITMAP
F8
80
80
F0
80
80
80
ENDCHAR
STARTCHAR G
ENCODING 71
SWIDTH 576 0
DWIDTH 6 0
BBX 5 7 0 0
BITMAP
70
88
80
80
98
88
70
ENDCHAR
STARTCHAR H
ENCODING 72
SWIDTH 576 0
DWIDTH 6 0
BBX 5 7 0 0
BITMAP
88
88
88
F8
88
88
88
ENDCHAR
STARTCHAR I
ENCODING 73
SWIDTH 576 0
DWIDTH 6 0
BBX 3 7 1 0
BITMAP
E0
40
40
40
40
40
E0
ENDCHAR
STARTCHAR J
ENCODING 74
SWIDTH 576 0
DWIDTH 6 0
BBX 5 7 0 0
BITMAP
38
10
10
10
10
90
60
ENDCHAR
STARTCHAR K
ENCODING 75
SWIDTH 576 0
DWIDTH 6 0
BBX 5 7 0 0
BITMAP
88
90
A0
C0
A0
90
88
ENDCHAR
STARTCHAR L
ENCODING 76
SWIDTH 576 0
DWIDTH 6 0
BBX 5 7 0 0
BITMAP
80
80
80
80
80
80
F8
ENDCHAR
STARTCHAR M
ENCODING 77
SWIDTH 576 0
DWIDTH 6 0
BBX 5 7 0 0
BITMAP
88
88
D8
A8
88
88
88
ENDCHAR
STARTCHAR N
ENCODING 78
SWIDTH 576 0
DWIDTH 6 0
BBX 5 7 0 0
BITMAP
88
88
C8
A8
98
88
88
ENDCHAR
STARTCHAR O
ENCODING 79
SWIDTH 576 0
DWIDTH 6 0
BBX 5 7 0 0
BITMAP
70
88
88
88
88
88
70
ENDCHAR
STARTCHAR P
ENCODING 80
SWIDTH 576 0
DWIDTH 6 0
BBX 5 7 0 0
BITMAP
F0
88
88
F0
80
80
80
ENDCHAR
STARTCHAR Q
ENCODING 81
SWIDTH 576 0
DWIDTH 6 0
BBX 5 8 0 -1
BITMAP
70
88
88
88
88
A8
70
08
ENDCHAR
STARTCHAR R
ENCODING 82
SWIDTH 576 0
DWIDTH 6 0
BBX 5 7 0 0
BITMAP
F0
88
88
F0
A0
90
88
ENDCHAR
STARTCHAR S
ENCODING 83
SWIDTH 576 0
DWIDTH 6 0
BBX 5 7 0 0
BITMAP
70
88
80
70
08
88
70
ENDCHAR
STARTCHAR T
ENCODING 84
SWIDTH 576 0
DWIDTH 6 0
BBX 5 7 0 0
BITMAP
F8
20
20
20
20
20
20
ENDCHAR
STARTCHAR U
ENCODING 85
SWIDTH 576 0
DWIDTH 6 0
BBX 5 7 0 0
BITMAP
88
88
88
88
88
88
70
ENDCHAR
STARTCHAR V
ENCODING 86
SWIDTH 576 0
DWIDTH 6 0
BBX 5 7 0 0
BITMAP
88
88
88
50
50
50
20
ENDCHAR
STARTCHAR W
ENCODING 87
SWIDTH 576 0
DWIDTH 6 0
BBX 5 7 0 0
BITMAP
88
88
88
A8
A8
D8
88
ENDCHAR
STARTCHAR X
ENCODING 88
SWIDTH 576 0
DWIDTH 6 0
BBX 5 7 0 0
BITMAP
88
88
50
20
50
88
88
ENDCHAR
STARTCHAR Y
ENCODING 89
SWIDTH 576 0
DWIDTH 6 0
BBX 5 7 0 0
BITMAP
88
88
50
20
20
20
20
ENDCHAR
STARTCHAR Z
ENCODING 90
SWIDTH 576 0
DWIDTH 6 0
BBX 5 7 0 0
BITMAP
F8
08
10
20
40
80
F8
ENDCHAR
STARTCHAR bracketleft
ENCODING 91
SWIDTH 576 0
DWIDTH 6 0
BBX 3 7 1 0
BITMAP
E0
80
80
80
80
80
E0
ENDCHAR
STARTCHAR backslash
ENCODING 92
SWIDTH 576 0
DWIDTH 6 0
BBX 5 7 0 0
BITMAP
80
80
40
20
10
08
08
ENDCHAR
STARTCHAR bracketright
ENCODING 93
SWIDTH 576 0
DWIDTH 6 0
BBX 3 7 1 0
BITMAP
E0
20
20
20
20
20
E0
ENDCHAR
STARTCHAR asciicircum
ENCODING 94
SWIDTH 576 0
DWIDTH 6 0
BBX 5 3 0 4
BITMAP
20
50
88
ENDCHAR
STARTCHAR underscore
ENCODING 95
SWIDTH 576 0
DWIDTH 6 0
BBX 5 1 0 -1
BITMAP
F8
ENDCHAR
STARTCHAR grave
ENCODING 96
SWIDTH 576 0
DWIDTH 6 0
BBX 2 2 2 6
BITMAP
80
40
ENDCHAR
STARTCHAR a
ENCODING 97
SWIDTH 576 0
DWIDTH 6 0
BBX 5 5 0 0
BITMAP
70
08
78
88
78
ENDCHAR
STARTCHAR b
ENCODING 98
SWIDTH 576 0
DWIDTH 6 0
BBX 5 7 0 0
BITMAP
80
80
B0
C8
88
C8
B0
ENDCHAR
STARTCHAR c
ENCODING 99
SWIDTH 576 0
DWIDTH 6 0
BBX 5 5 0 0
BITMAP
70
88
80
88
70
ENDCHAR
STARTCHAR d
ENCODING 100
SWIDTH 576 0
DWIDTH 6 0
BBX 5 7 0 0
BITMAP
08
08
68
98
88
98
68
ENDCHAR
STARTCHAR e
ENCODING 101
SWIDTH 576 0
DWIDTH 6 0
BBX 5 5 0 0
BITMAP
70
88
F8
80
70
ENDCHAR
STARTCHAR f
ENCODING 102
SWIDTH 576 0
DWIDTH 6 0
BBX 5 7 0 0
BITMAP
30
48
40
F0
40
40
40
ENDCHAR
STARTCHAR g
ENCODING 103
SWIDTH 576 0
DWIDTH 6 0
BBX 5 7 0 -2
BITMAP
78
88
88
78
08
88
70
ENDCHAR
STARTCHAR h
ENCODING 104
SWIDTH 576 0
DWIDTH 6 0
BBX 5 7 0 0
BITMAP
80
80
B0
C8
88
88
88
ENDCHAR
STARTCHAR i
ENCODING 105
SWIDTH 576 0
DWIDTH 6 0
BBX 3 7 1 0
BITMAP
40
00
C0
40
40
40
E0
ENDCHAR
STARTCHAR j
ENCODING 106
SWIDTH 576 0
DWIDTH 6 0
BBX 4 9 1 -2
BITMAP
10
00
30
10
10
10
90
90
60
ENDCHAR
STARTCHAR k
ENCODING 107
SWIDTH 576 0
DWIDTH 6 0
BBX 5 7 0 0
BITMAP
80
80
88
90
E0
90
88
ENDCHAR
STARTCHAR l
ENCODING 108
SWIDTH 576 0
DWIDTH 6 0
BBX 3 7 1 0
BITMAP
C0
40
40
40
40
40
E0
ENDCHAR
STARTCHAR m
ENCODING 109
SWIDTH 576 0
DWIDTH 6 0
BBX 5 5 0 0
BITMAP
D0
A8
A8
A8
88
ENDCHAR
STARTCHAR n
ENCODING 110
SWIDTH 576 0
DWIDTH 6 0
BBX 5 5 0 0
BITMAP
B0
C8
88
88
88
ENDCHAR
STARTCHAR o
ENCODING 111
SWIDTH 576 0
DWIDTH 6 0
BBX 5 5 0 0
BITMAP
70
88
88
88
70
ENDCHAR
STARTCHAR p
ENCODING 112
SWIDTH 576 0
DWIDTH 6 0
BBX 5 7 0 -2
BITMAP
B0
C8
88
C8
B0
80
80
ENDCHAR
STARTCHAR q
ENCODING 113
SWIDTH 576 0
DWIDTH 6 0
BBX 5 7 0 -2
BITMAP
68
98
88
98
68
08
08
ENDCHAR
STARTCHAR r
ENCODING 114
SWIDTH 576 0
DWIDTH 6 0
BBX 5 5 0 0
BITMAP
B0
C8
80
80
80
ENDCHAR
STARTCHAR s
ENCODING 115
SWIDTH 576 0
DWIDTH 6 0
BBX 5 5 0 0
BITMAP
70
80
70
08
F0
ENDCHAR
STARTCHAR t
ENCODING 116
SWIDTH 576 0
DWIDTH 6 0
BBX 5 7 0 0
BITMAP
40
40
F0
40
40
48
30
ENDCHAR
STARTCHAR u
ENCODING 117
SWIDTH 576 0
DWIDTH 6 0
BBX 5 5 0 0
BITMAP
88
88
88
98
68
ENDCHAR
STARTCHAR v
ENCODING 118
SWIDTH 576 0
DWIDTH 6 0
BBX 5 5 0 0
BITMAP
88
88
50
50
20
ENDCHAR
STARTCHAR w
ENCODING 119
SWIDTH 576 0
DWIDTH 6 0
BBX 5 5 0 0
BITMAP
88
88
A8
A8
50
ENDCHAR
STARTCHAR x
ENCODING 120
SWIDTH 576 0
DWIDTH 6 0
BBX 5 5 0 0
BITMAP
88
50
20
50
88
ENDCHAR
STARTCHAR y
ENCODING 121
SWIDTH 576 0
DWIDTH 6 0
BBX 5 7 0 -2
BITMAP
88
88
98
68
08
88
70
ENDCHAR
STARTCHAR z
ENCODING 122
SWIDTH 576 0
DWIDTH 6 0
BBX 5 5 0 0
BITMAP
F8
10
20
40
F8
ENDCHAR
STARTCHAR braceleft
ENCODING 123
SWIDTH 576 0
DWIDTH 6 0
BBX 4 7 1 0
BITMAP
30
40
20
C0
20
40
30
ENDCHAR
STARTCHAR bar
ENCODING 124
SWIDTH 576 0
DWIDTH 6 0
BBX 1 7 2 0
BITMAP
80
80
80
80
80
80
80
ENDCHAR
STARTCHAR braceright
ENCODING 125
SWIDTH 576 0
DWIDTH 6 0
BBX 4 7 1 0
BITMAP
C0
20
40
30
40
20
C0
ENDCHAR
STARTCHAR asciitilde
ENCODING 126
SWIDTH 576 0
DWIDTH 6 0
BBX 5 3 0 4
BITMAP
48
A8
90
ENDCHAR
STARTCHAR exclamdown
ENCODING 161
SWIDTH 576 0
DWIDTH 6 0
BBX 1 7 2 0
BITMAP
80
00
80
80
80
80
80
ENDCHAR
STARTCHAR cent
ENCODING 162
SWIDTH 576 0
DWIDTH 6 0
BBX 5 7 0 -1
BITMAP
20
78
A0
A0
A0
78
20
ENDCHAR
STARTCHAR sterling
ENCODING 163
SWIDTH 576 0
DWIDTH 6 0
BBX 5 7 0 0
BITMAP
30
48
40
E0
40
48
B0
ENDCHAR
STARTCHAR currency
ENCODING 164
SWIDTH 576 0
DWIDTH 6 0
BBX 5 5 0 0
BITMAP
88
70
50
70
88
ENDCHAR
STARTCHAR yen
ENCODING 165
SWIDTH 576 0
DWIDTH 6 0
BBX 5 8 0 -1
BITMAP
88
88
50
20
F8
20
20
20
ENDCHAR
STARTCHAR brokenbar
ENCODING 166
SWIDTH 576 0
DWIDTH 6 0
BBX 1 7 2 0
BITMAP
80
80
80
00
80
80
80
ENDCHAR
STARTCHAR section
ENCODING 167
SWIDTH 576 0
DWIDTH 6 0
BBX 5 8 0 -1
BITMAP
70
80
E0
90
48
38
08
70
ENDCHAR
STARTCHAR dieresis
ENCODING 168
SWIDTH 576 0
DWIDTH 6 0
BBX 3 1 1 7
BITMAP
A0
ENDCHAR
STARTCHAR copyright
ENCODING 169
SWIDTH 576 0
DWIDTH 6 0
BBX 5 7 0 0
BITMAP
70
88
A8
C8
A8
88
70
ENDCHAR
STARTCHAR ordfeminine
ENCODING 170
SWIDTH 576 0
DWIDTH 6 0
BBX 4 6 1 1
BITMAP
70
90
B0
50
00
F0
ENDCHAR
STARTCHAR guillemotleft
ENCODING 171
SWIDTH 576 0
DWIDTH 6 0
BBX 6 5 0 0
BITMAP
24
48
90
48
24
ENDCHAR
STARTCHAR logicalnot
ENCODING 172
SWIDTH 576 0
DWIDTH 6 0
BBX 4 2 1 2
BITMAP
F0
10
ENDCHAR
STARTCHAR registered
ENCODING 174
SWIDTH 576 0
DWIDTH 6 0
BBX 5 7 0 0
BITMAP
70
88
E8
C8
C8
88
70
ENDCHAR
STARTCHAR macron
ENCODING 175
SWIDTH 576 0
DWIDTH 6 0
BBX 5 1 0 7
BITMAP
F8
ENDCHAR
STARTCHAR degree
ENCODING 176
SWIDTH 576 0
DWIDTH 6 0
BBX 3 3 1 4
BITMAP
40
A0
40
ENDCHAR
STARTCHAR plusminus
ENCODING 177
SWIDTH 576 0
DWIDTH 6 0
BBX 5 6 0 0
BITMAP
20
20
F8
20
20
F8
ENDCHAR
STARTCHAR twosuperior
ENCODING 178
SWIDTH 576 0
DWIDTH 6 0
BBX 4 5 1 3
BITMAP
60
90
20
40
F0
ENDCHAR
STARTCHAR threesuperior
ENCODING 179
SWIDTH 576 0
DWIDTH 6 0
BBX 4 5 1 3
BITMAP
E0
10
60
10
E0
ENDCHAR
STARTCHAR acute
ENCODING 180
SWIDTH 576 0
DWIDTH 6 0
BBX 2 2 2 6
BITMAP
40
80
ENDCHAR
STARTCHAR paragraph
ENCODING 182
SWIDTH 576 0
DWIDTH 6 0
BBX 5 7 0 0
BITMAP
78
E8
E8
68
28
28
28
ENDCHAR
STARTCHAR periodcentered
ENCODING 183
SWIDTH 576 0
DWIDTH 6 0
BBX 1 1 2 3
BITMAP
80
ENDCHAR
STARTCHAR cedilla
ENCODING 184
SWIDTH 576 0
DWIDTH 6 0
BBX 2 2 2 -2
BITMAP
40
80
ENDCHAR
STARTCHAR onesuperior
ENCODING 185
SWIDTH 576 0
DWIDTH 6 0
BBX 3 5 1 3
BITMAP
40
C0
40
40
E0
ENDCHAR
STARTCHAR ordmasculine
ENCODING 186
SWIDTH 576 0
DWIDTH 6 0
BBX 4 6 1 1
BITMAP
60
90
90
60
00
F0
ENDCHAR
STARTCHAR guillemotright
ENCODING 187
SWIDTH 576 0
DWIDTH 6 0
BBX 6 5 0 0
BITMAP
90
48
24
48
90
ENDCHAR
STARTCHAR onequarter
ENCODING 188
SWIDTH 576 0
DWIDTH 6 0
BBX 6 9 0 -1
BITMAP
40
C0
40
40
E4
0C
14
3C
04
ENDCHAR
STARTCHAR onehalf
ENCODING 189
SWIDTH 576 0
DWIDTH 6 0
BBX 6 9 0 -1
BITMAP
40
C0
40
40
E8
14
04
08
1C
ENDCHAR
STARTCHAR threequarters
ENCODING 190
SWIDTH 576 0
DWIDTH 6 0
BBX 5 9 0 -1
BITMAP
C0
20
40
20
C8
18
28
78
08
ENDCHAR
STARTCHAR questiondown
ENCODING 191
SWIDTH 576 0
DWIDTH 6 0
BBX 5 7 0 0
BITMAP
20
00
20
20
40
88
70
ENDCHAR
STARTCHAR Agrave
ENCODING 192
SWIDTH 576 0
DWIDTH 6 0
BBX 5 8 0 0
BITMAP
40
20
70
88
88
F8
88
88
ENDCHAR
STARTCHAR Aacute
ENCODING 193
SWIDTH 576 0
DWIDTH 6 0
BBX 5 8 0 0
BITMAP
10
20
70
88
88
F8
88
88
ENDCHAR
STARTCHAR Acircumflex
ENCODING 194
SWIDTH 576 0
DWIDTH 6 0
BBX 5 8 0 0
BITMAP
20
50
70
88
88
F8
88
88
ENDCHAR
STARTCHAR Atilde
ENCODING 195
SWIDTH 576 0
DWIDTH 6 0
BBX 5 8 0 0
BITMAP
48
B0
70
88
88
F8
88
88
ENDCHAR
STARTCHAR Adieresis
ENCODING 196
SWIDTH 576 0
DWIDTH 6 0
BBX 5 8 0 0
BITMAP
50
00
70
88
88
F8
88
88
ENDCHAR
STARTCHAR Aring
ENCODING 197
SWIDTH 576 0
DWIDTH 6 0
BBX 5 8 0 0
BITMAP
20
50
70
88
88
F8
88
88
ENDCHAR
STARTCHAR AE
ENCODING 198
SWIDTH 576 0
DWIDTH 6 0
BBX 6 7 0 0
BITMAP
3C
50
90
9C
F0
90
9C
ENDCHAR
STARTCHAR Ccedilla
ENCODING 199
SWIDTH 576 0
DWIDTH 6 0
BBX 5 9 0 -2
BITMAP
70
88
80
80
80
88
70
20
40
ENDCHAR
STARTCHAR Egrave
ENCODING 200
SWIDTH 576 0
DWIDTH 6 0
BBX 5 8 0 0
BITMAP
40
F8
80
80
F0
80
80
F8
ENDCHAR
STARTCHAR Eacute
ENCODING 201
SWIDTH 576 0
DWIDTH 6 0
BBX 5 8 0 0
BITMAP
10
F8
80
80
F0
80
80
F8
ENDCHAR
STARTCHAR Ecircumflex
ENCODING 202
SWIDTH 576 0
DWIDTH 6 0
BBX 5 8 0 0
BITMAP
20
F8
80
80
F0
80
80
F8
ENDCHAR
STARTCHAR Edieresis
ENCODING 203
SWIDTH 576 0
DWIDTH 6 0
BBX 5 8 0 0
BITMAP
50
F8
80
80
F0
80
80
F8
ENDCHAR
STARTCHAR Igrave
ENCODING 204
SWIDTH 576 0
DWIDTH 6 0
BBX 3 8 1 0
BITMAP
80
40
E0
40
40
40
40
E0
ENDCHAR
STARTCHAR Iacute
ENCODING 205
SWIDTH 576 0
DWIDTH 6 0
BBX 3 8 1 0
BITMAP
20
40
E0
40
40
40
40
E0
ENDCHAR
STARTCHAR Icircumflex
ENCODING 206
SWIDTH 576 0
DWIDTH 6 0
BBX 3 8 1 0
BITMAP
40
A0
E0
40
40
40
40
E0
ENDCHAR
STARTCHAR Idieresis
ENCODING 207
SWIDTH 576 0
DWIDTH 6 0
BBX 3 8 1 0
BITMAP
A0
00
E0
40
40
40
40
E0
ENDCHAR
STARTCHAR Eth
ENCODING 208
SWIDTH 576 0
DWIDTH 6 0
BBX 5 7 0 0
BITMAP
F0
48
48
E8
48
48
F0
ENDCHAR
STARTCHAR Ntilde
ENCODING 209
SWIDTH 576 0
DWIDTH 6 0
BBX 5 8 0 0
BITMAP
28
50
88
C8
A8
98
88
88
ENDCHAR
STARTCHAR Ograve
ENCODING 210
SWIDTH 576 0
DWIDTH 6 0
BBX 5 8 0 0
BITMAP
40
20
70
88
88
88
88
70
ENDCHAR
STARTCHAR Oacute
ENCODING 211
SWIDTH 576 0
DWIDTH 6 0
BBX 5 8 0 0
BITMAP
10
20
70
88
88
88
88
70
ENDCHAR
STARTCHAR Ocircumflex
ENCODING 212
SWIDTH 576 0
DWIDTH 6 0
BBX 5 8 0 0
BITMAP
20
50
70
88
88
88
88
70
ENDCHAR
STARTCHAR Otilde
ENCODING 213
SWIDTH 576 0
DWIDTH 6 0
BBX 5 8 0 0
BITMAP
28
50
70
88
88
88
88
70
ENDCHAR
STARTCHAR Odieresis
ENCODING 214
SWIDTH 576 0
DWIDTH 6 0
BBX 5 8 0 0
BITMAP
50
00
70
88
88
88
88
70
ENDCHAR
STARTCHAR multiply
ENCODING 215
SWIDTH 576 0
DWIDTH 6 0
BBX 5 5 0 0
BITMAP
88
50
20
50
88
ENDCHAR
STARTCHAR Oslash
ENCODING 216
SWIDTH 576 0
DWIDTH 6 0
BBX 5 7 0 0
BITMAP
70
98
98
A8
C8
C8
70
ENDCHAR
STARTCHAR Ugrave
ENCODING 217
SWIDTH 576 0
DWIDTH 6 0
BBX 5 8 0 0
BITMAP
40
20
88
88
88
88
88
70
ENDCHAR
STARTCHAR Uacute
ENCODING 218
SWIDTH 576 0
DWIDTH 6 0
BBX 5 8 0 0
BITMAP
10
20
88
88
88
88
88
70
ENDCHAR
STARTCHAR Ucircumflex
ENCODING 219
SWIDTH 576 0
DWIDTH 6 0
BBX 5 8 0 0
BITMAP
20
50
00
88
88
88
88
70
ENDCHAR
STARTCHAR Udieresis
ENCODING 220
SWIDTH 576 0
DWIDTH 6 0
BBX 5 8 0 0
BITMAP
50
00
88
88
88
88
88
70
ENDCHAR
STARTCHAR Yacute
ENCODING 221
SWIDTH 576 0
DWIDTH 6 0
BBX 5 8 0 0
BITMAP
10
20
88
88
50
20
20
20
ENDCHAR
STARTCHAR Thorn
ENCODING 222
SWIDTH 576 0
DWIDTH 6 0
BBX 5 7 0 0
BITMAP
80
F0
88
F0
80
80
80
ENDCHAR
STARTCHAR germandbls
ENCODING 223
SWIDTH 576 0
DWIDTH 6 0
BBX 5 7 0 0
BITMAP
70
88
90
A0
90
88
B0
ENDCHAR
STARTCHAR agrave
ENCODING 224
SWIDTH 576 0
DWIDTH 6 0
BBX 5 8 0 0
BITMAP
40
20
00
70
08
78
88
78
ENDCHAR
STARTCHAR aacute
ENCODING 225
SWIDTH 576 0
DWIDTH 6 0
BBX 5 8 0 0
BITMAP
10
20
00
70
08
78
88
78
ENDCHAR
STARTCHAR acircumflex
ENCODING 226
SWIDTH 576 0
DWIDTH 6 0
BBX 5 8 0 0
BITMAP
20
50
00
70
08
78
88
78
ENDCHAR
STARTCHAR atilde
ENCODING 227
SWIDTH 576 0
DWIDTH 6 0
BBX 5 8 0 0
BITMAP
28
50
00
70
08
78
88
78
ENDCHAR
STARTCHAR adieresis
ENCODING 228
SWIDTH 576 0
DWIDTH 6 0
BBX 5 7 0 0
BITMAP
50
00
70
08
78
88
78
ENDCHAR
STARTCHAR aring
ENCODING 229
SWIDTH 576 0
DWIDTH 6 0
BBX 5 8 0 0
BITMAP
20
50
20
70
08
78
88
78
ENDCHAR
STARTCHAR ae
ENCODING 230
SWIDTH 576 0
DWIDTH 6 0
BBX 6 5 0 0
BITMAP
78
14
7C
90
7C
ENDCHAR
STARTCHAR ccedilla
ENCODING 231
SWIDTH 576 0
DWIDTH 6 0
BBX 5 7 0 -2
BITMAP
70
88
80
88
70
20
40
ENDCHAR
STARTCHAR egrave
ENCODING 232
SWIDTH 576 0
DWIDTH 6 0
BBX 5 8 0 0
BITMAP
40
20
00
70
88
F8
80
70
ENDCHAR
STARTCHAR eacute
ENCODING 233
SWIDTH 576 0
DWIDTH 6 0
BBX 5 8 0 0
BITMAP
10
20
00
70
88
F8
80
70
ENDCHAR
STARTCHAR ecircumflex
ENCODING 234
SWIDTH 576 0
DWIDTH 6 0
BBX 5 8 0 0
BITMAP
20
50
00
70
88
F8
80
70
ENDCHAR
STARTCHAR edieresis
ENCODING 235
SWIDTH 576 0
DWIDTH 6 0
BBX 5 7 0 0
BITMAP
50
00
70
88
F8
80
70
ENDCHAR
STARTCHAR igrave
ENCODING 236
SWIDTH 576 0
DWIDTH 6 0
BBX 3 8 1 0
BITMAP
80
40
00
C0
40
40
40
E0
ENDCHAR
STARTCHAR iacute
ENCODING 237
SWIDTH 576 0
DWIDTH 6 0
BBX 3 8 1 0
BITMAP
40
80
00
C0
40
40
40
E0
ENDCHAR
STARTCHAR icircumflex
ENCODING 238
SWIDTH 576 0
DWIDTH 6 0
BBX 3 8 1 0
BITMAP
40
A0
00
C0
40
40
40
E0
ENDCHAR
STARTCHAR idieresis
ENCODING 239
SWIDTH 576 0
DWIDTH 6 0
BBX 3 7 1 0
BITMAP
A0
00
C0
40
40
40
E0
ENDCHAR
STARTCHAR eth
ENCODING 240
SWIDTH 576 0
DWIDTH 6 0
BBX 5 7 0 0
BITMAP
C0
30
70
88
88
88
70
ENDCHAR
STARTCHAR ntilde
ENCODING 241
SWIDTH 576 0
DWIDTH 6 0
BBX 5 8 0 0
BITMAP
28
50
00
B0
C8
88
88
88
ENDCHAR
STARTCHAR ograve
ENCODING 242
SWIDTH 576 0
DWIDTH 6 0
BBX 5 8 0 0
BITMAP
40
20
00
70
88
88
88
70
ENDCHAR
STARTCHAR oacute
ENCODING 243
SWIDTH 576 0
DWIDTH 6 0
BBX 5 8 0 0
BITMAP
10
20
00
70
88
88
88
70
ENDCHAR
STARTCHAR ocircumflex
ENCODING 244
SWIDTH 576 0
DWIDTH 6 0
BBX 5 8 0 0
BITMAP
20
50
00
70
88
88
88
70
ENDCHAR
STARTCHAR otilde
ENCODING 245
SWIDTH 576 0
DWIDTH 6 0
BBX 5 8 0 0
BITMAP
28
50
00
70
88
88
88
70
ENDCHAR
STARTCHAR odieresis
ENCODING 246
SWIDTH 576 0
DWIDTH 6 0
BBX 5 7 0 0
BITMAP
50
00
70
88
88
88
70
ENDCHAR
STARTCHAR divide
ENCODING 247
SWIDTH 576 0
DWIDTH 6 0
BBX 5 5 0 1
BITMAP
20
00
F8
00
20
ENDCHAR
STARTCHAR oslash
ENCODING 248
SWIDTH 576 0
DWIDTH 6 0
BBX 5 5 0 0
BITMAP
78
98
A8
C8
F0
ENDCHAR
STARTCHAR ugrave
ENCODING 249
SWIDTH 576 0
DWIDTH 6 0
BBX 5 8 0 0
BITMAP
40
20
00
88
88
88
98
68
ENDCHAR
STARTCHAR uacute
ENCODING 250
SWIDTH 576 0
DWIDTH 6 0
BBX 5 8 0 0
BITMAP
10
20
00
88
88
88
98
68
ENDCHAR
STARTCHAR ucircumflex
ENCODING 251
SWIDTH 576 0
DWIDTH 6 0
BBX 5 8 0 0
BITMAP
20
50
00
88
88
88
98
68
ENDCHAR
STARTCHAR udieresis
ENCODING 252
SWIDTH 576 0
DWIDTH 6 0
BBX 5 7 0 0
BITMAP
50
00
88
88
88
98
68
ENDCHAR
STARTCHAR yacute
ENCODING 253
SWIDTH 576 0
DWIDTH 6 0
BBX 5 9 0 -2
BITMAP
10
20
88
88
98
68
08
88
70
ENDCHAR
STARTCHAR thorn
ENCODING 254
SWIDTH 576 0
DWIDTH 6 0
BBX 5 8 0 -2
BITMAP
80
F0
88
88
88
F0
80
80
ENDCHAR
STARTCHAR ydieresis
ENCODING 255
SWIDTH 576 0
DWIDTH 6 0
BBX 5 9 0 -2
BITMAP
50
00
88
88
98
68
08
88
70
ENDCHAR
STARTCHAR mu
ENCODING 956
SWIDTH 576 0
DWIDTH 6 0
BBX 5 6 0 -1
BITMAP
88
88
88
C8
B0
80
ENDCHAR
STARTCHAR uni21B2
ENCODING 8626
SWIDTH 480 0
DWIDTH 6 0
BBX 5 8 0 0
BITMAP
08
08
08
28
48
F8
40
20
ENDCHAR
ENDFONT
